<svg xmlns="http://www.w3.org/2000/svg" version="1.1" xmlns:xlink="http://www.w3.org/1999/xlink" xmlns:svgjs="http://svgjs.dev/svgjs" width="180" height="180" viewBox="0 0 128 128"><g transform="matrix(0.8046875,0,0,0.8046875,12.333870967741944,41.401503387916435)"><svg viewBox="0 0 155 69" data-background-color="#ffffff" preserveAspectRatio="xMidYMid meet" height="56" width="128" xmlns="http://www.w3.org/2000/svg" xmlns:xlink="http://www.w3.org/1999/xlink"><g id="tight-bounds" transform="matrix(1,0,0,1,0.2499999999999858,0.10296846011131322)"><svg viewBox="0 0 154.5 68.79406307977737" height="68.79406307977737" width="154.5"><g><svg viewBox="0 0 154.5 68.79406307977737" height="68.79406307977737" width="154.5"><g><svg viewBox="0 0 154.5 68.79406307977737" height="68.79406307977737" width="154.5"><g id="textblocktransform"><svg viewBox="0 0 154.5 68.79406307977737" height="68.79406307977737" width="154.5" id="textblock"><g><svg viewBox="0 0 154.5 68.79406307977737" height="68.79406307977737" width="154.5"><g transform="matrix(1,0,0,1,0,0)"><svg width="154.5" viewBox="-0.85 -31.25 80.85 36" height="68.79406307977737" data-palette-color="#1ebbd7"><path d="M39.55-21.4L39.55-21.4Q37.7-20.65 36.38-20.65 35.05-20.65 35.05-21.2L35.05-21.2Q35.05-21.55 36.52-21.6 38-21.65 38.65-21.95L38.65-21.95Q40.55-22.95 40.55-24.9L40.55-24.9Q40.55-25.9 40-27L40-27Q38.4-29.85 32.25-29.85L32.25-29.85Q28.7-29.85 25.15-28.78 21.6-27.7 19.2-25.48 16.8-23.25 16.8-21.35L16.8-21.35Q16.8-18.45 22.55-17.1L22.55-17.1 28.45-16Q32-15.35 33.75-14.2L33.75-14.2Q36.05-12.8 36.05-10.2L36.05-10.2Q36.05-9.15 35.7-7.95L35.7-7.95Q34.1-2.55 27.45 0.3L27.45 0.3Q21.9 2.75 14.35 2.75L14.35 2.75Q12.2 2.75 10.6 2.55L10.6 2.55Q12.2 3.45 14.8 4.1L14.8 4.1Q15 4.15 15 4.3L15 4.3Q15 4.75 13.95 4.75L13.95 4.75Q11.9 4.75 8.85 2.3L8.85 2.3Q4.7 1.65 2.65 0L2.65 0Q1.35-1.05 0.25-3.1-0.85-5.15-0.85-6.8-0.85-8.45-0.2-9.55L-0.2-9.55Q1.3-12.2 3.6-12.2L3.6-12.2Q5.35-12.2 5.65-9.25L5.65-9.25Q6.35-3.55 6.6-2.75L6.6-2.75Q7.35-0.3 9.15 1.4L9.15 1.4Q11.25 1.85 13.7 1.85L13.7 1.85Q19.1 1.85 24.3-0.3 29.5-2.45 31.8-6.4L31.8-6.4Q32.75-7.95 32.75-9.15L32.75-9.15Q32.75-11.5 28.6-12.8L28.6-12.8 19.8-14.8Q17.1-15.45 15.48-16.95 13.85-18.45 13.85-20.4L13.85-20.4Q13.85-23.4 17.6-26.4L17.6-26.4Q20.45-28.7 24.58-29.98 28.7-31.25 32.68-31.25 36.65-31.25 39.25-30.1L39.25-30.1Q42.6-28.55 42.6-25.58 42.6-22.6 39.55-21.4ZM7.35 0.9L7.35 0.9Q4.45-2.3 3.65-7.85L3.65-7.85Q3.2-11 2.8-11 2.4-11 2.05-10.78 1.7-10.55 1.35-9.8 1-9.05 1-7.85L1-7.85Q1-4 3.7-1.25L3.7-1.25Q5.05 0.15 7.35 0.9ZM76.95-21.4L76.95-21.4Q75.1-20.65 73.77-20.65 72.45-20.65 72.45-21.2L72.45-21.2Q72.45-21.55 73.92-21.6 75.4-21.65 76.05-21.95L76.05-21.95Q77.95-22.95 77.95-24.9L77.95-24.9Q77.95-25.9 77.4-27L77.4-27Q75.8-29.85 69.65-29.85L69.65-29.85Q66.1-29.85 62.55-28.78 59-27.7 56.6-25.48 54.2-23.25 54.2-21.35L54.2-21.35Q54.2-18.45 59.95-17.1L59.95-17.1 65.85-16Q69.4-15.35 71.15-14.2L71.15-14.2Q73.45-12.8 73.45-10.2L73.45-10.2Q73.45-9.15 73.1-7.95L73.1-7.95Q71.5-2.55 64.85 0.3L64.85 0.3Q59.3 2.75 51.75 2.75L51.75 2.75Q49.6 2.75 48 2.55L48 2.55Q49.6 3.45 52.2 4.1L52.2 4.1Q52.4 4.15 52.4 4.3L52.4 4.3Q52.4 4.75 51.35 4.75L51.35 4.75Q49.3 4.75 46.25 2.3L46.25 2.3Q42.1 1.65 40.05 0L40.05 0Q38.75-1.05 37.65-3.1 36.55-5.15 36.55-6.8 36.55-8.45 37.2-9.55L37.2-9.55Q38.7-12.2 41-12.2L41-12.2Q42.75-12.2 43.05-9.25L43.05-9.25Q43.75-3.55 44-2.75L44-2.75Q44.75-0.3 46.55 1.4L46.55 1.4Q48.65 1.85 51.1 1.85L51.1 1.85Q56.5 1.85 61.7-0.3 66.9-2.45 69.2-6.4L69.2-6.4Q70.15-7.95 70.15-9.15L70.15-9.15Q70.15-11.5 66-12.8L66-12.8 57.2-14.8Q54.5-15.45 52.87-16.95 51.25-18.45 51.25-20.4L51.25-20.4Q51.25-23.4 55-26.4L55-26.4Q57.85-28.7 61.97-29.98 66.1-31.25 70.07-31.25 74.05-31.25 76.65-30.1L76.65-30.1Q80-28.55 80-25.58 80-22.6 76.95-21.4ZM44.75 0.9L44.75 0.9Q41.85-2.3 41.05-7.85L41.05-7.85Q40.6-11 40.2-11 39.8-11 39.45-10.78 39.1-10.55 38.75-9.8 38.4-9.05 38.4-7.85L38.4-7.85Q38.4-4 41.1-1.25L41.1-1.25Q42.45 0.15 44.75 0.9Z" opacity="1" transform="matrix(1,0,0,1,0,0)" fill="#1ebbd7" class="wordmark-text-0" data-fill-palette-color="primary" id="text-0"></path></svg></g></svg></g></svg></g></svg></g><g></g></svg></g><defs></defs></svg><rect width="154.5" height="68.79406307977737" fill="none" stroke="none" visibility="hidden"></rect></g></svg></g></svg>