<svg xmlns="http://www.w3.org/2000/svg" version="1.1" xmlns:xlink="http://www.w3.org/1999/xlink" xmlns:svgjs="http://svgjs.dev/svgjs" width="2000" height="464" viewBox="0 0 2000 464"><g transform="matrix(1,0,0,1,-1.2112696095522324,-0.587268120868174)"><svg viewBox="0 0 396 92" data-background-color="#ffffff" preserveAspectRatio="xMidYMid meet" height="464" width="2000" xmlns="http://www.w3.org/2000/svg" xmlns:xlink="http://www.w3.org/1999/xlink"><g id="tight-bounds" transform="matrix(1,0,0,1,0.24008861730862918,0.11649540938063296)"><svg viewBox="0 0 395.52 91.76698869665512" height="91.76698869665512" width="395.52"><g><svg viewBox="0 0 395.52 91.76698869665512" height="91.76698869665512" width="395.52"><g><svg viewBox="0 0 395.52 91.76698869665512" height="91.76698869665512" width="395.52"><g id="textblocktransform"><svg viewBox="0 0 395.52 91.76698869665512" height="91.76698869665512" width="395.52" id="textblock"><g><svg viewBox="0 0 395.52 91.76698869665512" height="91.76698869665512" width="395.52"><path d="M394.594 19.682C392.735 10.157 387.435 7.509 387.435 7.509 371.165-2.302 350.86-0.188 332.619 1.222 300.414 1.279 268.339 3.375 236.208 4.499 168.767 4.67 100.749 1.851 33.643 8.804 27.339 10.938-6.54 9.223 1.121 20.902 3.129 25.759 10.456 31.151 10.232 35.609 11.236 36.39 12.631 34.599 13.226 35.723 15.309 38.752 18.711 37.323 21.501 39.114 17.614 43.896 20.403 47.877 23.062 52.05 18.377 53.135 12.371 52.621 9.675 56.222 9.396 58.832 7.89 58.336 6.235 58.222 5.026 58.146 2.59 58.432 2.999 59.251 4.394 62.051-1.594 63.67 2.162 66.414-0.422 69.386 3.948 71.958 3.353 75.177 3.278 75.825 3.687 76.377 4.338 76.53 7.22 77.349 3.018 78.949 3.464 80.683 33.029 92.532 65.104 84.341 95.394 89.789 103.259 85.979 97.346 91.142 100.489 90.342 102.943 89.408 104.728 93.275 107.499 91.085 107.927 90.456 107.276 88.97 108.8 89.256 109.6 89.408 110.307 89.37 110.418 88.494 110.586 87.179 109.117 87.998 108.726 87.312 112.947 83.845 111.906 92.094 115.866 91.751 115.68 90.742 114.528 89.294 116.889 89.484 119.232 88.036 119.306 86.836 121.389 90.094 121.463 90.799 121.835 91.294 122.43 91.637 128.938 88.094 135.409 92.894 142.233 91.294 146.417 89.541 150.433 92.247 154.672 91.58 156.16 91.046 157.666 90.094 159.098 91.694 176.632 92.037 195.319 90.608 211.943 91.751 256.364 89.618 303.835 92.628 350.674 89.808 361.719 88.722 373.192 87.179 383.958 85.941 383.958 85.941 392.679 82.55 392.679 67.309S394.538 53.974 394.817 41.838C395.096 29.703 396.398 29.208 394.538 19.682Z" opacity="1" fill="#4B91F1" data-fill-palette-color="tertiary"></path><g transform="matrix(1,0,0,1,55.76832,26.230666666666668)"><svg width="283.98335999999995" viewBox="-0.8500000238418579 -31.25 260.07000732421875 36" height="39.30565536332179" data-palette-color="#ffffff"><path d="M39.55-21.4L39.55-21.4Q37.7-20.65 36.38-20.65 35.05-20.65 35.05-21.2L35.05-21.2Q35.05-21.55 36.52-21.6 38-21.65 38.65-21.95L38.65-21.95Q40.55-22.95 40.55-24.9L40.55-24.9Q40.55-25.9 40-27L40-27Q38.4-29.85 32.25-29.85L32.25-29.85Q28.7-29.85 25.15-28.78 21.6-27.7 19.2-25.48 16.8-23.25 16.8-21.35L16.8-21.35Q16.8-18.45 22.55-17.1L22.55-17.1 28.45-16Q32-15.35 33.75-14.2L33.75-14.2Q36.05-12.8 36.05-10.2L36.05-10.2Q36.05-9.15 35.7-7.95L35.7-7.95Q34.1-2.55 27.45 0.3L27.45 0.3Q21.9 2.75 14.35 2.75L14.35 2.75Q12.2 2.75 10.6 2.55L10.6 2.55Q12.2 3.45 14.8 4.1L14.8 4.1Q15 4.15 15 4.3L15 4.3Q15 4.75 13.95 4.75L13.95 4.75Q11.9 4.75 8.85 2.3L8.85 2.3Q4.7 1.65 2.65 0L2.65 0Q1.35-1.05 0.25-3.1-0.85-5.15-0.85-6.8-0.85-8.45-0.2-9.55L-0.2-9.55Q1.3-12.2 3.6-12.2L3.6-12.2Q5.35-12.2 5.65-9.25L5.65-9.25Q6.35-3.55 6.6-2.75L6.6-2.75Q7.35-0.3 9.15 1.4L9.15 1.4Q11.25 1.85 13.7 1.85L13.7 1.85Q19.1 1.85 24.3-0.3 29.5-2.45 31.8-6.4L31.8-6.4Q32.75-7.95 32.75-9.15L32.75-9.15Q32.75-11.5 28.6-12.8L28.6-12.8 19.8-14.8Q17.1-15.45 15.48-16.95 13.85-18.45 13.85-20.4L13.85-20.4Q13.85-23.4 17.6-26.4L17.6-26.4Q20.45-28.7 24.58-29.98 28.7-31.25 32.68-31.25 36.65-31.25 39.25-30.1L39.25-30.1Q42.6-28.55 42.6-25.58 42.6-22.6 39.55-21.4ZM7.35 0.9L7.35 0.9Q4.45-2.3 3.65-7.85L3.65-7.85Q3.2-11 2.8-11 2.4-11 2.05-10.78 1.7-10.55 1.35-9.8 1-9.05 1-7.85L1-7.85Q1-4 3.7-1.25L3.7-1.25Q5.05 0.15 7.35 0.9ZM54-14.95L54-14.95 54.7-15.1Q55.25-15.1 55.75-14.65 56.25-14.2 56.25-13.95 56.25-13.7 53.15-9.13 50.05-4.55 50.05-2.75L50.05-2.75Q50.05-2.6 50.1-2.45L50.1-2.45Q50.35-1.3 51.2-1.3L51.2-1.3Q53.8-1.3 60.7-9.9L60.7-9.9Q60.85-10.1 61.05-10.1 61.25-10.1 61.25-9.73 61.25-9.35 60.8-8.75L60.8-8.75Q54.4-0.2 51.05-0.2L51.05-0.2Q50.6-0.2 50.2-0.35L50.2-0.35Q48-1.2 48-3.65L48-3.65Q48-4.5 48.2-5.35L48.2-5.35 45.1-2.35Q42.15 0.25 40.82 0.25 39.5 0.25 38.3-0.6L38.3-0.6Q36.95-1.6 36.95-3.25L36.95-3.25Q36.95-6.9 42.05-11.98 47.15-17.05 51.4-17.05L51.4-17.05Q53.05-17.05 53.6-15.9L53.6-15.9Q53.75-15.5 53.85-15.23 53.95-14.95 54-14.95ZM39.05-2.65L39.05-2.65Q39.05-0.85 40.3-0.85L40.3-0.85Q43.2-0.85 48.2-7.2L48.2-7.2 53.5-14.5Q53.1-15.2 52.2-15.2L52.2-15.2Q49.15-15.2 44.1-10.48 39.05-5.75 39.05-2.65ZM81.9-0.6L81.9-0.6Q78.5-0.6 78.5-3.75L78.5-3.75Q78.5-5.55 80.09-8.68 81.7-11.8 83.45-13.95L83.45-13.95Q80.34-12.45 76.3-8.53 72.25-4.6 70.65-0.3L70.65-0.3Q70.4 0.1 69.8 0.1L69.8 0.1Q68.59 0.1 68.59-1.25L68.59-1.25Q69.09-4 70.84-7.55L70.84-7.55Q71.4-8.7 74.09-14.25L74.09-14.25Q70.2-11.7 67.47-8.78 64.75-5.85 62.42-2.9 60.1 0.05 59.8 0.05L59.8 0.05Q59.15 0.05 58.67-0.55 58.2-1.15 58.2-1.75L58.2-1.75Q58.2-2.65 60.8-8.35L60.8-8.35 57.8-5.2Q56.7-4.1 56.42-4.1 56.15-4.1 56.15-4.42 56.15-4.75 56.55-5.15L56.55-5.15Q58.4-7 59.85-8.85 61.3-10.7 64.65-15.45L64.65-15.45Q65.2-16.2 66.2-16.2 67.2-16.2 67.2-15.25L67.2-15.25Q67.2-14.9 64.55-10.38 61.9-5.85 61.6-4.7L61.6-4.7Q63.65-6.95 67.75-10.75L67.75-10.75Q73.9-16.45 75.84-16.45L75.84-16.45Q76.45-16.45 76.95-16.1 77.45-15.75 77.45-15.33 77.45-14.9 75.5-11.55L75.5-11.55Q73.59-8.1 73.4-7.45L73.4-7.45Q78.95-12.1 78.95-12.15L78.95-12.15Q83.65-15.8 85.7-15.8L85.7-15.8Q86.3-15.8 86.82-15.43 87.34-15.05 87.34-14.55L87.34-14.55Q87.34-14.45 84.09-10.33 80.84-6.2 80.45-3.55L80.45-3.55Q80.34-2.65 80.8-2.2 81.25-1.75 82.42-1.75 83.59-1.75 85.87-3.38 88.15-5 90.5-7.75L90.5-7.75Q91.4-8.75 91.72-8.75 92.05-8.75 92.05-8.5L92.05-8.5Q92.05-8.15 91.59-7.7L91.59-7.7Q89.15-4.75 86.32-2.68 83.5-0.6 81.9-0.6ZM100.94-12.45L100.94-12.45Q100.94-15.85 103.04-15.85L103.04-15.85Q103.24-15.85 103.49-15.8L103.49-15.8Q104.34-15.65 104.34-14.5 104.34-13.35 103.94-11.6L103.94-11.6Q103.54-10.3 103.39-9.65L103.39-9.65Q103.54-8.8 104.22-7.48 104.89-6.15 106.07-6.15 107.24-6.15 108.69-7.75L108.69-7.75Q108.99-8.1 109.27-8.1 109.54-8.1 109.57-7.78 109.59-7.45 109.19-6.9L109.19-6.9Q107.64-5.05 105.94-5.05L105.94-5.05Q103.49-5.05 101.99-8.65L101.99-8.65Q100.44-5.1 97.59-2.53 94.74 0.05 91.94 0.05L91.94 0.05Q89.29 0.05 89.29-3.95L89.29-3.95Q89.29-7.1 95.17-15.55 101.04-24 104.14-24L104.14-24Q104.79-24 105.32-23.6 105.84-23.2 105.84-22.65L105.84-22.65Q105.84-22.7 105.12-21.9 104.39-21.1 101.17-17.6 97.94-14.1 94.84-9.9 91.74-5.7 91.74-3.4L91.74-3.4Q91.74-2.8 92.07-2.1 92.39-1.4 93.14-1.4L93.14-1.4Q95.34-1.4 98.29-4.8L98.29-4.8Q100.74-7.8 101.29-9.85L101.29-9.85Q100.94-10.9 100.94-12.45ZM124.39-14.95L124.39-14.95 125.09-15.1Q125.64-15.1 126.14-14.65 126.64-14.2 126.64-13.95 126.64-13.7 123.54-9.13 120.44-4.55 120.44-2.75L120.44-2.75Q120.44-2.6 120.49-2.45L120.49-2.45Q120.74-1.3 121.59-1.3L121.59-1.3Q124.19-1.3 131.09-9.9L131.09-9.9Q131.24-10.1 131.44-10.1 131.64-10.1 131.64-9.73 131.64-9.35 131.19-8.75L131.19-8.75Q124.79-0.2 121.44-0.2L121.44-0.2Q120.99-0.2 120.59-0.35L120.59-0.35Q118.39-1.2 118.39-3.65L118.39-3.65Q118.39-4.5 118.59-5.35L118.59-5.35 115.49-2.35Q112.54 0.25 111.22 0.25 109.89 0.25 108.69-0.6L108.69-0.6Q107.34-1.6 107.34-3.25L107.34-3.25Q107.34-6.9 112.44-11.98 117.54-17.05 121.79-17.05L121.79-17.05Q123.44-17.05 123.99-15.9L123.99-15.9Q124.14-15.5 124.24-15.23 124.34-14.95 124.39-14.95ZM109.44-2.65L109.44-2.65Q109.44-0.85 110.69-0.85L110.69-0.85Q113.59-0.85 118.59-7.2L118.59-7.2 123.89-14.5Q123.49-15.2 122.59-15.2L122.59-15.2Q119.54-15.2 114.49-10.48 109.44-5.75 109.44-2.65ZM141.44-16.1L141.44-16.1 148.64-16.2Q148.79-16.1 148.79-16.05L148.79-16.05Q148.79-15.6 142.56-14.8 136.34-14 135.84-13.85L135.84-13.85Q134.89-13 132.34-8.78 129.79-4.55 129.79-2.6L129.79-2.6Q129.79-0.75 132.34-0.75L132.34-0.75Q133.54-0.75 135.49-1.5 137.44-2.25 138.49-2.9L138.49-2.9Q141.29-4.65 144.49-8.05L144.49-8.05Q145.19-8.75 145.44-8.75L145.44-8.75Q145.59-8.75 145.59-8.45 145.59-8.15 144.84-7.25L144.84-7.25Q142.24-4.05 138.99-2.1L138.99-2.1Q135.09 0.3 131.54 0.3L131.54 0.3Q129.99 0.3 129.01-0.38 128.04-1.05 128.04-3.1 128.04-5.15 129.84-8.72 131.64-12.3 132.59-14.05L132.59-14.05Q131.89-13.9 131.39-13.9L131.39-13.9Q129.94-13.9 129.94-15.05L129.94-15.05Q129.94-15.9 131.14-16.25L131.14-16.25Q131.29-16.25 131.59-16.3L131.59-16.3 134.49-16.3Q135.39-17.45 136.54-18.95L136.54-18.95Q137.94-20.75 138.44-20.75 138.94-20.75 139.69-20.35 140.44-19.95 140.44-19.4 140.44-18.85 138.04-16.15L138.04-16.15Q139.34-16.1 141.44-16.1ZM155.09-0.2L155.09-0.2Q152.14-0.2 152.14-3.65L152.14-3.65Q152.14-5.6 153.51-7.98 154.89-10.35 156.89-13.55L156.89-13.55Q150.49-10.35 145.29-4.1L145.29-4.1Q142.39 0.25 141.89 0.25L141.89 0.25Q140.44 0.25 140.44-0.6L140.44-0.6Q140.44-1.05 141.04-2.2L141.04-2.2Q145.89-10.85 148.39-14.85L148.39-14.85Q154.34-24.4 156.79-25.2L156.79-25.2Q156.89-25.25 156.99-25.25L156.99-25.25Q157.64-25.25 157.89-24.2L157.89-24.2Q157.74-23.15 152.69-16.6L152.69-16.6Q147.44-9.95 146.74-7.9L146.74-7.9Q148.59-9.25 153.19-12.45L153.19-12.45Q158.14-15.9 159.74-15.9 161.34-15.9 161.34-14.65L161.34-14.65Q161.34-14.45 161.31-14.38 161.29-14.3 157.84-9.65 154.39-5 154.39-2.8L154.39-2.8Q154.39-1.65 155.24-1.65L155.24-1.65Q157.94-1.75 163.34-8.15L163.34-8.15Q163.79-8.6 164.01-8.6 164.24-8.6 164.24-8.3L164.24-8.3Q164.24-7.3 159.29-2.9L159.29-2.9Q156.19-0.2 155.09-0.2ZM211.48-21.4L211.48-21.4Q209.63-20.65 208.31-20.65 206.98-20.65 206.98-21.2L206.98-21.2Q206.98-21.55 208.46-21.6 209.93-21.65 210.58-21.95L210.58-21.95Q212.48-22.95 212.48-24.9L212.48-24.9Q212.48-25.9 211.93-27L211.93-27Q210.33-29.85 204.18-29.85L204.18-29.85Q200.63-29.85 197.08-28.78 193.53-27.7 191.13-25.48 188.73-23.25 188.73-21.35L188.73-21.35Q188.73-18.45 194.48-17.1L194.48-17.1 200.38-16Q203.93-15.35 205.68-14.2L205.68-14.2Q207.98-12.8 207.98-10.2L207.98-10.2Q207.98-9.15 207.63-7.95L207.63-7.95Q206.03-2.55 199.38 0.3L199.38 0.3Q193.83 2.75 186.28 2.75L186.28 2.75Q184.13 2.75 182.53 2.55L182.53 2.55Q184.13 3.45 186.73 4.1L186.73 4.1Q186.93 4.15 186.93 4.3L186.93 4.3Q186.93 4.75 185.88 4.75L185.88 4.75Q183.83 4.75 180.78 2.3L180.78 2.3Q176.63 1.65 174.58 0L174.58 0Q173.28-1.05 172.18-3.1 171.08-5.15 171.08-6.8 171.08-8.45 171.73-9.55L171.73-9.55Q173.23-12.2 175.53-12.2L175.53-12.2Q177.28-12.2 177.58-9.25L177.58-9.25Q178.28-3.55 178.53-2.75L178.53-2.75Q179.28-0.3 181.08 1.4L181.08 1.4Q183.18 1.85 185.63 1.85L185.63 1.85Q191.03 1.85 196.23-0.3 201.43-2.45 203.73-6.4L203.73-6.4Q204.68-7.95 204.68-9.15L204.68-9.15Q204.68-11.5 200.53-12.8L200.53-12.8 191.73-14.8Q189.03-15.45 187.41-16.95 185.78-18.45 185.78-20.4L185.78-20.4Q185.78-23.4 189.53-26.4L189.53-26.4Q192.38-28.7 196.51-29.98 200.63-31.25 204.61-31.25 208.58-31.25 211.18-30.1L211.18-30.1Q214.53-28.55 214.53-25.58 214.53-22.6 211.48-21.4ZM179.28 0.9L179.28 0.9Q176.38-2.3 175.58-7.85L175.58-7.85Q175.13-11 174.73-11 174.33-11 173.98-10.78 173.63-10.55 173.28-9.8 172.93-9.05 172.93-7.85L172.93-7.85Q172.93-4 175.63-1.25L175.63-1.25Q176.98 0.15 179.28 0.9ZM222.38-10.6L222.38-10.6Q222.38-8.85 219.03-4.75L219.03-4.75Q215.08 0.1 212.28 0.1L212.28 0.1 211.48 0.1Q210.18 0.1 209.43-1.25L209.43-1.25Q208.83-2.2 208.83-3.35L208.83-3.35Q208.83-6.35 213.2-11.78 217.58-17.2 220.28-17.2L220.28-17.2Q222.83-17.2 222.83-14.5L222.83-14.5Q222.83-13.8 222.58-12.7L222.58-12.7Q222.63-12.55 223.53-12.55 224.43-12.55 226.28-13.5L226.28-13.5Q226.23-12.65 222.33-11.05L222.33-11.05Q222.38-10.85 222.38-10.6ZM219.13-13.2L219.13-13.2Q217.43-13.2 214.3-9.2 211.18-5.2 211.18-3.3 211.18-1.4 212.38-1.4L212.38-1.4Q214.53-1.4 217.83-5.3 221.13-9.2 221.13-10.9L221.13-10.9Q220.33-11.35 219.13-13.2ZM236.43-16.1L236.43-16.1 243.63-16.2Q243.78-16.1 243.78-16.05L243.78-16.05Q243.78-15.6 237.55-14.8 231.33-14 230.83-13.85L230.83-13.85Q229.88-13 227.33-8.78 224.78-4.55 224.78-2.6L224.78-2.6Q224.78-0.75 227.33-0.75L227.33-0.75Q228.53-0.75 230.48-1.5 232.43-2.25 233.48-2.9L233.48-2.9Q236.28-4.65 239.48-8.05L239.48-8.05Q240.18-8.75 240.43-8.75L240.43-8.75Q240.58-8.75 240.58-8.45 240.58-8.15 239.83-7.25L239.83-7.25Q237.23-4.05 233.98-2.1L233.98-2.1Q230.08 0.3 226.53 0.3L226.53 0.3Q224.98 0.3 224-0.38 223.03-1.05 223.03-3.1 223.03-5.15 224.83-8.72 226.63-12.3 227.58-14.05L227.58-14.05Q226.88-13.9 226.38-13.9L226.38-13.9Q224.93-13.9 224.93-15.05L224.93-15.05Q224.93-15.9 226.13-16.25L226.13-16.25Q226.28-16.25 226.58-16.3L226.58-16.3 229.48-16.3Q230.38-17.45 231.53-18.95L231.53-18.95Q232.93-20.75 233.43-20.75 233.93-20.75 234.68-20.35 235.43-19.95 235.43-19.4 235.43-18.85 233.03-16.15L233.03-16.15Q234.33-16.1 236.43-16.1ZM250.07-0.2L250.07-0.2Q247.12-0.2 247.12-3.65L247.12-3.65Q247.12-5.6 248.5-7.98 249.87-10.35 251.87-13.55L251.87-13.55Q245.47-10.35 240.27-4.1L240.27-4.1Q237.37 0.25 236.87 0.25L236.87 0.25Q235.42 0.25 235.42-0.6L235.42-0.6Q235.42-1.05 236.02-2.2L236.02-2.2Q240.87-10.85 243.37-14.85L243.37-14.85Q249.32-24.4 251.77-25.2L251.77-25.2Q251.87-25.25 251.97-25.25L251.97-25.25Q252.62-25.25 252.87-24.2L252.87-24.2Q252.72-23.15 247.67-16.6L247.67-16.6Q242.42-9.95 241.72-7.9L241.72-7.9Q243.57-9.25 248.17-12.45L248.17-12.45Q253.12-15.9 254.72-15.9 256.32-15.9 256.32-14.65L256.32-14.65Q256.32-14.45 256.3-14.38 256.27-14.3 252.82-9.65 249.37-5 249.37-2.8L249.37-2.8Q249.37-1.65 250.22-1.65L250.22-1.65Q252.92-1.75 258.32-8.15L258.32-8.15Q258.77-8.6 259-8.6 259.22-8.6 259.22-8.3L259.22-8.3Q259.22-7.3 254.27-2.9L254.27-2.9Q251.17-0.2 250.07-0.2Z" opacity="1" transform="matrix(1,0,0,1,0,0)" fill="#ffffff" class="wordmark-text-0" data-fill-palette-color="quaternary" id="text-0"></path></svg></g></svg></g></svg></g></svg></g><g></g></svg></g><defs></defs></svg><rect width="395.52" height="91.76698869665512" fill="none" stroke="none" visibility="hidden"></rect></g></svg></g></svg>